<?xml version="1.0" encoding="UTF-8"?>
<svg xmlns="http://www.w3.org/2000/svg" xmlns:xlink="http://www.w3.org/1999/xlink" width="854" height="480" viewBox="0 0 854 480">
<defs>
<g>
<g id="glyph-0-0">
<path d="M 0.757812 -4.859375 L 3.621094 -4.859375 L 3.621094 -4.308594 L 1.417969 -4.308594 L 1.417969 -3.003906 L 3.414062 -3.003906 L 3.414062 -2.453125 L 1.417969 -2.453125 L 1.417969 0 L 0.757812 0 Z "/>
</g>
<g id="glyph-0-1">
<path d="M 3.761719 -2.894531 C 3.632812 -2.992188 3.5 -3.066406 3.371094 -3.113281 C 3.238281 -3.15625 3.089844 -3.179688 2.933594 -3.179688 C 2.558594 -3.179688 2.273438 -3.0625 2.078125 -2.828125 C 1.878906 -2.59375 1.78125 -2.257812 1.78125 -1.8125 L 1.78125 0 L 1.179688 0 L 1.179688 -3.644531 L 1.78125 -3.644531 L 1.78125 -2.933594 C 1.878906 -3.191406 2.035156 -3.390625 2.242188 -3.527344 C 2.449219 -3.664062 2.695312 -3.734375 2.980469 -3.734375 C 3.125 -3.734375 3.265625 -3.714844 3.390625 -3.679688 C 3.519531 -3.640625 3.644531 -3.585938 3.761719 -3.507812 Z "/>
</g>
<g id="glyph-0-2">
<path d="M 3.644531 -2.121094 L 3.644531 -1.828125 L 1.050781 -1.828125 L 1.050781 -1.808594 C 1.035156 -1.3125 1.128906 -0.957031 1.335938 -0.738281 C 1.542969 -0.523438 1.835938 -0.414062 2.214844 -0.414062 C 2.40625 -0.414062 2.605469 -0.445312 2.8125 -0.503906 C 3.019531 -0.566406 3.242188 -0.65625 3.480469 -0.78125 L 3.480469 -0.1875 C 3.253906 -0.09375 3.03125 -0.0234375 2.820312 0.0234375 C 2.609375 0.0703125 2.40625 0.09375 2.207031 0.09375 C 1.640625 0.09375 1.199219 -0.0742188 0.878906 -0.414062 C 0.558594 -0.753906 0.402344 -1.222656 0.402344 -1.820312 C 0.402344 -2.402344 0.558594 -2.867188 0.871094 -3.214844 C 1.183594 -3.5625 1.597656 -3.734375 2.121094 -3.734375 C 2.585938 -3.734375 2.949219 -3.578125 3.21875 -3.261719 C 3.484375 -2.945312 3.628906 -2.566406 3.644531 -2.121094 Z M 3.046875 -2.296875 C 3.019531 -2.550781 2.929688 -2.769531 2.773438 -2.949219 C 2.613281 -3.132812 2.386719 -3.226562 2.09375 -3.226562 C 1.804688 -3.226562 1.566406 -3.128906 1.378906 -2.941406 C 1.191406 -2.75 1.089844 -2.535156 1.074219 -2.296875 Z "/>
</g>
<g id="glyph-0-3">
<rect x="0" y="0" width="0" height="0" mask="url(#mask-0)"/>
</g>
<g id="glyph-0-4">
<path d="M 1.78125 -2.953125 L 3.136719 -1.132812 C 3.21875 -1.238281 3.28125 -1.375 3.324219 -1.535156 C 3.363281 -1.699219 3.386719 -1.894531 3.386719 -2.121094 C 3.386719 -2.1875 3.382812 -2.300781 3.375 -2.453125 L 3.371094 -2.472656 L 3.90625 -2.472656 L 3.90625 -2.347656 C 3.90625 -1.996094 3.867188 -1.691406 3.785156 -1.425781 C 3.707031 -1.164062 3.585938 -0.9375 3.421875 -0.746094 L 3.976562 0 L 3.28125 0 L 3.027344 -0.355469 C 2.847656 -0.203125 2.65625 -0.0898438 2.453125 -0.015625 C 2.253906 0.0585938 2.035156 0.09375 1.808594 0.09375 C 1.339844 0.09375 0.949219 -0.0507812 0.644531 -0.34375 C 0.339844 -0.636719 0.1875 -1.003906 0.1875 -1.445312 C 0.1875 -1.742188 0.261719 -2.019531 0.410156 -2.273438 C 0.558594 -2.527344 0.785156 -2.761719 1.085938 -2.980469 C 0.976562 -3.136719 0.898438 -3.289062 0.847656 -3.4375 C 0.792969 -3.585938 0.769531 -3.738281 0.769531 -3.894531 C 0.769531 -4.21875 0.875 -4.476562 1.09375 -4.664062 C 1.308594 -4.851562 1.605469 -4.949219 1.980469 -4.949219 C 2.121094 -4.949219 2.261719 -4.933594 2.402344 -4.910156 C 2.546875 -4.882812 2.691406 -4.84375 2.84375 -4.796875 L 2.84375 -4.199219 C 2.714844 -4.285156 2.585938 -4.347656 2.449219 -4.386719 C 2.3125 -4.425781 2.171875 -4.445312 2.023438 -4.445312 C 1.8125 -4.445312 1.644531 -4.398438 1.523438 -4.296875 C 1.402344 -4.199219 1.339844 -4.066406 1.339844 -3.898438 C 1.339844 -3.769531 1.371094 -3.636719 1.4375 -3.496094 C 1.5 -3.355469 1.613281 -3.175781 1.78125 -2.953125 Z M 1.355469 -2.613281 C 1.15625 -2.457031 1.003906 -2.289062 0.90625 -2.109375 C 0.808594 -1.933594 0.757812 -1.746094 0.757812 -1.546875 C 0.757812 -1.21875 0.867188 -0.945312 1.085938 -0.730469 C 1.300781 -0.515625 1.578125 -0.40625 1.914062 -0.40625 C 2.003906 -0.40625 2.101562 -0.421875 2.199219 -0.445312 C 2.300781 -0.472656 2.398438 -0.511719 2.492188 -0.558594 C 2.550781 -0.59375 2.601562 -0.621094 2.636719 -0.644531 C 2.675781 -0.671875 2.710938 -0.699219 2.746094 -0.726562 Z "/>
</g>
<g id="glyph-0-5">
<path d="M 2.003906 -3.226562 C 1.699219 -3.226562 1.472656 -3.109375 1.316406 -2.871094 C 1.160156 -2.632812 1.082031 -2.285156 1.082031 -1.820312 C 1.082031 -1.359375 1.160156 -1.007812 1.316406 -0.769531 C 1.472656 -0.53125 1.703125 -0.414062 2.003906 -0.414062 C 2.3125 -0.414062 2.542969 -0.53125 2.699219 -0.769531 C 2.855469 -1.007812 2.933594 -1.359375 2.933594 -1.820312 C 2.933594 -2.285156 2.855469 -2.632812 2.699219 -2.871094 C 2.542969 -3.109375 2.3125 -3.226562 2.003906 -3.226562 Z M 2.003906 -3.734375 C 2.511719 -3.734375 2.898438 -3.570312 3.164062 -3.242188 C 3.433594 -2.914062 3.566406 -2.441406 3.566406 -1.820312 C 3.566406 -1.195312 3.433594 -0.722656 3.167969 -0.394531 C 2.902344 -0.0703125 2.511719 0.09375 2.003906 0.09375 C 1.5 0.09375 1.113281 -0.0703125 0.847656 -0.394531 C 0.578125 -0.722656 0.445312 -1.195312 0.445312 -1.820312 C 0.445312 -2.441406 0.578125 -2.914062 0.847656 -3.242188 C 1.113281 -3.570312 1.5 -3.734375 2.003906 -3.734375 Z "/>
</g>
<g id="glyph-0-6">
<path d="M 1.222656 -0.460938 L 1.222656 1.386719 L 0.617188 1.386719 L 0.617188 -3.644531 L 1.222656 -3.644531 L 1.222656 -3.179688 C 1.320312 -3.359375 1.453125 -3.496094 1.621094 -3.59375 C 1.785156 -3.6875 1.976562 -3.734375 2.195312 -3.734375 C 2.636719 -3.734375 2.980469 -3.5625 3.230469 -3.222656 C 3.480469 -2.882812 3.605469 -2.410156 3.605469 -1.808594 C 3.605469 -1.214844 3.480469 -0.75 3.230469 -0.410156 C 2.976562 -0.0742188 2.632812 0.09375 2.195312 0.09375 C 1.972656 0.09375 1.777344 0.046875 1.613281 -0.046875 C 1.445312 -0.140625 1.316406 -0.277344 1.222656 -0.460938 Z M 2.980469 -1.820312 C 2.980469 -2.285156 2.90625 -2.632812 2.757812 -2.871094 C 2.613281 -3.109375 2.394531 -3.226562 2.105469 -3.226562 C 1.816406 -3.226562 1.59375 -3.105469 1.445312 -2.871094 C 1.296875 -2.632812 1.222656 -2.28125 1.222656 -1.820312 C 1.222656 -1.359375 1.296875 -1.011719 1.445312 -0.773438 C 1.59375 -0.535156 1.816406 -0.414062 2.105469 -0.414062 C 2.394531 -0.414062 2.613281 -0.53125 2.757812 -0.769531 C 2.90625 -1.003906 2.980469 -1.355469 2.980469 -1.820312 Z "/>
</g>
<g id="glyph-0-7">
<path d="M 3.421875 -2.257812 L 3.421875 0 L 2.820312 0 L 2.820312 -2.257812 C 2.820312 -2.585938 2.761719 -2.828125 2.648438 -2.980469 C 2.53125 -3.136719 2.351562 -3.214844 2.105469 -3.214844 C 1.824219 -3.214844 1.609375 -3.113281 1.460938 -2.914062 C 1.308594 -2.714844 1.234375 -2.433594 1.234375 -2.0625 L 1.234375 0 L 0.636719 0 L 0.636719 -3.644531 L 1.234375 -3.644531 L 1.234375 -3.097656 C 1.339844 -3.308594 1.484375 -3.464844 1.667969 -3.574219 C 1.847656 -3.679688 2.066406 -3.734375 2.316406 -3.734375 C 2.6875 -3.734375 2.964844 -3.613281 3.144531 -3.367188 C 3.328125 -3.125 3.421875 -2.753906 3.421875 -2.257812 Z "/>
</g>
<g id="glyph-0-8">
<path d="M 3.167969 -3.519531 L 3.167969 -2.933594 C 2.996094 -3.03125 2.824219 -3.109375 2.648438 -3.15625 C 2.476562 -3.207031 2.300781 -3.234375 2.121094 -3.234375 C 1.847656 -3.234375 1.644531 -3.1875 1.511719 -3.101562 C 1.378906 -3.011719 1.3125 -2.878906 1.3125 -2.699219 C 1.3125 -2.535156 1.363281 -2.414062 1.460938 -2.335938 C 1.5625 -2.253906 1.808594 -2.175781 2.207031 -2.101562 L 2.449219 -2.054688 C 2.746094 -1.996094 2.96875 -1.886719 3.125 -1.714844 C 3.277344 -1.546875 3.351562 -1.324219 3.351562 -1.054688 C 3.351562 -0.695312 3.226562 -0.414062 2.96875 -0.210938 C 2.710938 -0.0078125 2.355469 0.09375 1.902344 0.09375 C 1.722656 0.09375 1.53125 0.0742188 1.335938 0.0390625 C 1.136719 0 0.921875 -0.0585938 0.695312 -0.132812 L 0.695312 -0.753906 C 0.917969 -0.636719 1.128906 -0.550781 1.335938 -0.492188 C 1.539062 -0.433594 1.730469 -0.40625 1.914062 -0.40625 C 2.179688 -0.40625 2.382812 -0.460938 2.53125 -0.566406 C 2.675781 -0.675781 2.746094 -0.824219 2.746094 -1.019531 C 2.746094 -1.296875 2.480469 -1.488281 1.949219 -1.59375 L 1.925781 -1.601562 L 1.699219 -1.648438 C 1.355469 -1.714844 1.101562 -1.828125 0.945312 -1.988281 C 0.785156 -2.148438 0.707031 -2.363281 0.707031 -2.640625 C 0.707031 -2.988281 0.824219 -3.257812 1.0625 -3.449219 C 1.296875 -3.640625 1.636719 -3.734375 2.074219 -3.734375 C 2.269531 -3.734375 2.457031 -3.714844 2.636719 -3.679688 C 2.816406 -3.644531 2.992188 -3.589844 3.167969 -3.519531 Z "/>
</g>
<g id="glyph-0-9">
<path d="M 0.636719 -1.378906 L 0.636719 -3.640625 L 1.234375 -3.640625 L 1.234375 -1.378906 C 1.234375 -1.050781 1.292969 -0.8125 1.40625 -0.65625 C 1.523438 -0.503906 1.703125 -0.425781 1.945312 -0.425781 C 2.226562 -0.425781 2.445312 -0.527344 2.59375 -0.722656 C 2.742188 -0.921875 2.820312 -1.207031 2.820312 -1.578125 L 2.820312 -3.640625 L 3.421875 -3.640625 L 3.421875 0 L 2.820312 0 L 2.820312 -0.546875 C 2.714844 -0.335938 2.566406 -0.175781 2.382812 -0.0703125 C 2.199219 0.0390625 1.988281 0.09375 1.742188 0.09375 C 1.367188 0.09375 1.089844 -0.0273438 0.910156 -0.273438 C 0.726562 -0.515625 0.636719 -0.886719 0.636719 -1.378906 Z "/>
</g>
<g id="glyph-0-10">
<path d="M 3.453125 -0.1875 C 3.292969 -0.09375 3.128906 -0.0234375 2.957031 0.0234375 C 2.785156 0.0703125 2.613281 0.09375 2.433594 0.09375 C 1.871094 0.09375 1.429688 -0.0742188 1.113281 -0.414062 C 0.792969 -0.753906 0.636719 -1.222656 0.636719 -1.820312 C 0.636719 -2.417969 0.792969 -2.886719 1.113281 -3.226562 C 1.429688 -3.566406 1.871094 -3.734375 2.433594 -3.734375 C 2.609375 -3.734375 2.78125 -3.710938 2.949219 -3.664062 C 3.117188 -3.621094 3.285156 -3.550781 3.453125 -3.453125 L 3.453125 -2.824219 C 3.296875 -2.964844 3.136719 -3.070312 2.976562 -3.132812 C 2.816406 -3.195312 2.636719 -3.226562 2.433594 -3.226562 C 2.058594 -3.226562 1.769531 -3.105469 1.570312 -2.863281 C 1.367188 -2.617188 1.265625 -2.269531 1.265625 -1.820312 C 1.265625 -1.371094 1.367188 -1.023438 1.570312 -0.78125 C 1.773438 -0.535156 2.0625 -0.414062 2.433594 -0.414062 C 2.644531 -0.414062 2.828125 -0.445312 2.996094 -0.507812 C 3.160156 -0.574219 3.3125 -0.671875 3.453125 -0.808594 Z "/>
</g>
</g>
<image id="source-17" x="0" y="0" width="0" height="0"/>
<mask id="mask-0">
<use xlink:href="#source-17"/>
</mask>
</defs>
<g fill="rgb(41.960784%, 42.745098%, 50.196078%)" fill-opacity="1">
<use xlink:href="#glyph-0-0" x="30" y="26.188477"/>
<use xlink:href="#glyph-0-1" x="34" y="26.188477"/>
<use xlink:href="#glyph-0-2" x="38" y="26.188477"/>
<use xlink:href="#glyph-0-2" x="42" y="26.188477"/>
<use xlink:href="#glyph-0-3" x="46" y="26.188477"/>
<use xlink:href="#glyph-0-4" x="50" y="26.188477"/>
<use xlink:href="#glyph-0-3" x="54" y="26.188477"/>
<use xlink:href="#glyph-0-5" x="58" y="26.188477"/>
<use xlink:href="#glyph-0-6" x="62" y="26.188477"/>
<use xlink:href="#glyph-0-2" x="66" y="26.188477"/>
<use xlink:href="#glyph-0-7" x="70" y="26.188477"/>
<use xlink:href="#glyph-0-3" x="74" y="26.188477"/>
<use xlink:href="#glyph-0-8" x="78" y="26.188477"/>
<use xlink:href="#glyph-0-5" x="82" y="26.188477"/>
<use xlink:href="#glyph-0-9" x="86" y="26.188477"/>
<use xlink:href="#glyph-0-1" x="90" y="26.188477"/>
<use xlink:href="#glyph-0-10" x="94" y="26.188477"/>
<use xlink:href="#glyph-0-2" x="98" y="26.188477"/>
</g>
</svg>
