<?xml version="1.0" encoding="UTF-8"?>
<svg xmlns="http://www.w3.org/2000/svg" xmlns:xlink="http://www.w3.org/1999/xlink" width="854" height="480" viewBox="0 0 854 480">
<defs>
<g>
<g id="glyph-0-0">
<path d="M 1.171875 -3.328125 L 1.171875 -0.722656 L 1.390625 -0.722656 C 1.703125 -0.722656 1.929688 -0.820312 2.0625 -1.019531 C 2.195312 -1.21875 2.261719 -1.554688 2.261719 -2.027344 C 2.261719 -2.5 2.195312 -2.835938 2.0625 -3.03125 C 1.929688 -3.230469 1.703125 -3.328125 1.390625 -3.328125 Z M 0.371094 -4.050781 L 1.230469 -4.050781 C 1.890625 -4.050781 2.367188 -3.890625 2.660156 -3.578125 C 2.949219 -3.261719 3.09375 -2.746094 3.09375 -2.027344 C 3.09375 -1.3125 2.949219 -0.792969 2.660156 -0.476562 C 2.367188 -0.160156 1.890625 0 1.230469 0 L 0.371094 0 Z "/>
</g>
<g id="glyph-0-1">
<path d="M 1.671875 -2.464844 C 1.480469 -2.464844 1.332031 -2.382812 1.222656 -2.214844 C 1.113281 -2.046875 1.0625 -1.816406 1.0625 -1.515625 C 1.0625 -1.21875 1.113281 -0.984375 1.222656 -0.816406 C 1.332031 -0.648438 1.480469 -0.566406 1.671875 -0.566406 C 1.863281 -0.566406 2.011719 -0.652344 2.121094 -0.816406 C 2.230469 -0.984375 2.285156 -1.21875 2.285156 -1.515625 C 2.285156 -1.816406 2.230469 -2.046875 2.121094 -2.214844 C 2.011719 -2.382812 1.863281 -2.464844 1.671875 -2.464844 Z M 0.265625 -1.515625 C 0.265625 -2.007812 0.394531 -2.394531 0.648438 -2.679688 C 0.902344 -2.96875 1.242188 -3.113281 1.671875 -3.113281 C 2.101562 -3.113281 2.445312 -2.96875 2.699219 -2.679688 C 2.953125 -2.394531 3.078125 -2.007812 3.078125 -1.515625 C 3.078125 -1.027344 2.953125 -0.636719 2.699219 -0.351562 C 2.445312 -0.0664062 2.101562 0.078125 1.671875 0.078125 C 1.242188 0.078125 0.902344 -0.0664062 0.648438 -0.351562 C 0.394531 -0.636719 0.265625 -1.027344 0.265625 -1.515625 Z "/>
</g>
<g id="glyph-0-2">
<path d="M 0 -3.039062 L 0.660156 -3.039062 L 1.023438 -0.710938 L 1.351562 -2.242188 L 1.992188 -2.242188 L 2.316406 -0.710938 L 2.683594 -3.039062 L 3.34375 -3.039062 L 2.792969 0 L 2.039062 0 L 1.671875 -1.578125 L 1.304688 0 L 0.550781 0 Z "/>
</g>
<g id="glyph-0-3">
<path d="M 2.90625 -1.972656 L 2.90625 0 L 2.117188 0 L 2.117188 -1.851562 C 2.117188 -2.070312 2.085938 -2.226562 2.023438 -2.324219 C 1.960938 -2.417969 1.859375 -2.464844 1.71875 -2.464844 C 1.574219 -2.464844 1.460938 -2.402344 1.378906 -2.273438 C 1.296875 -2.144531 1.257812 -1.964844 1.257812 -1.738281 L 1.257812 0 L 0.464844 0 L 0.464844 -3.039062 L 1.257812 -3.039062 L 1.257812 -2.582031 C 1.3125 -2.75 1.40625 -2.882812 1.542969 -2.972656 C 1.679688 -3.066406 1.84375 -3.113281 2.035156 -3.113281 C 2.324219 -3.113281 2.539062 -3.015625 2.6875 -2.824219 C 2.832031 -2.632812 2.90625 -2.351562 2.90625 -1.972656 Z "/>
</g>
<g id="glyph-0-4">
<path d="M 1.050781 -1.265625 L 1.050781 -3.609375 L 0.246094 -3.609375 L 0.246094 -4.222656 L 1.84375 -4.222656 L 1.84375 -1.265625 C 1.84375 -1.027344 1.882812 -0.859375 1.957031 -0.757812 C 2.03125 -0.660156 2.15625 -0.609375 2.332031 -0.609375 L 2.96875 -0.609375 L 2.96875 0 L 2.109375 0 C 1.730469 0 1.460938 -0.0976562 1.296875 -0.292969 C 1.132812 -0.488281 1.050781 -0.8125 1.050781 -1.265625 Z "/>
</g>
<g id="glyph-0-5">
<path d="M 1.898438 -1.425781 C 1.601562 -1.425781 1.394531 -1.390625 1.277344 -1.3125 C 1.160156 -1.238281 1.101562 -1.105469 1.101562 -0.921875 C 1.101562 -0.785156 1.140625 -0.675781 1.222656 -0.59375 C 1.304688 -0.511719 1.414062 -0.472656 1.554688 -0.472656 C 1.765625 -0.472656 1.925781 -0.550781 2.042969 -0.710938 C 2.160156 -0.867188 2.214844 -1.089844 2.214844 -1.371094 L 2.214844 -1.425781 Z M 3.003906 -1.734375 L 3.003906 0 L 2.214844 0 L 2.214844 -0.339844 C 2.121094 -0.207031 1.996094 -0.101562 1.847656 -0.03125 C 1.699219 0.0429688 1.53125 0.078125 1.351562 0.078125 C 1.003906 0.078125 0.738281 -0.0117188 0.542969 -0.195312 C 0.351562 -0.378906 0.253906 -0.632812 0.253906 -0.960938 C 0.253906 -1.316406 0.371094 -1.578125 0.597656 -1.746094 C 0.828125 -1.914062 1.183594 -2 1.664062 -2 L 2.214844 -2 L 2.214844 -2.132812 C 2.214844 -2.261719 2.167969 -2.359375 2.078125 -2.421875 C 1.984375 -2.488281 1.847656 -2.523438 1.664062 -2.523438 C 1.476562 -2.523438 1.292969 -2.5 1.113281 -2.449219 C 0.933594 -2.402344 0.75 -2.328125 0.554688 -2.222656 L 0.554688 -2.898438 C 0.730469 -2.972656 0.910156 -3.027344 1.089844 -3.058594 C 1.269531 -3.09375 1.464844 -3.113281 1.664062 -3.113281 C 2.160156 -3.113281 2.507812 -3.011719 2.707031 -2.808594 C 2.90625 -2.609375 3.003906 -2.25 3.003906 -1.734375 Z "/>
</g>
<g id="glyph-0-6">
<path d="M 2.144531 -2.605469 L 2.144531 -4.222656 L 2.9375 -4.222656 L 2.9375 0 L 2.144531 0 L 2.144531 -0.449219 C 2.058594 -0.273438 1.949219 -0.144531 1.816406 -0.0546875 C 1.679688 0.0351562 1.523438 0.078125 1.339844 0.078125 C 0.992188 0.078125 0.722656 -0.0625 0.53125 -0.339844 C 0.339844 -0.617188 0.246094 -1.011719 0.246094 -1.515625 C 0.246094 -2.03125 0.339844 -2.425781 0.535156 -2.699219 C 0.730469 -2.972656 1.007812 -3.113281 1.367188 -3.113281 C 1.53125 -3.113281 1.675781 -3.070312 1.804688 -2.984375 C 1.933594 -2.902344 2.046875 -2.773438 2.144531 -2.605469 Z M 1.039062 -1.511719 C 1.039062 -1.21875 1.085938 -0.988281 1.183594 -0.820312 C 1.28125 -0.65625 1.417969 -0.574219 1.589844 -0.574219 C 1.761719 -0.574219 1.898438 -0.65625 1.996094 -0.820312 C 2.097656 -0.988281 2.144531 -1.21875 2.144531 -1.511719 C 2.144531 -1.804688 2.097656 -2.035156 1.996094 -2.199219 C 1.898438 -2.367188 1.761719 -2.449219 1.589844 -2.449219 C 1.417969 -2.449219 1.28125 -2.367188 1.183594 -2.199219 C 1.085938 -2.035156 1.039062 -1.804688 1.039062 -1.511719 Z "/>
</g>
<g id="glyph-0-7">
<rect x="0" y="0" width="0" height="0" mask="url(#mask-0)"/>
</g>
<g id="glyph-0-8">
<path d="M 2.003906 -3.304688 L 2.003906 -3.039062 L 2.9375 -3.039062 L 2.9375 -2.429688 L 2.003906 -2.429688 L 2.003906 0 L 1.210938 0 L 1.210938 -2.429688 L 0.472656 -2.429688 L 0.472656 -3.039062 L 1.210938 -3.039062 L 1.210938 -3.25 C 1.210938 -3.613281 1.285156 -3.867188 1.4375 -4.007812 C 1.589844 -4.148438 1.871094 -4.222656 2.285156 -4.222656 L 2.9375 -4.222656 L 2.9375 -3.609375 L 2.316406 -3.609375 C 2.195312 -3.609375 2.117188 -3.589844 2.074219 -3.546875 C 2.03125 -3.503906 2.007812 -3.421875 2.003906 -3.304688 Z "/>
</g>
<g id="glyph-0-9">
<path d="M 3.121094 -2.199219 C 3.035156 -2.28125 2.933594 -2.339844 2.816406 -2.378906 C 2.699219 -2.417969 2.574219 -2.4375 2.433594 -2.4375 C 2.265625 -2.4375 2.117188 -2.410156 1.992188 -2.351562 C 1.867188 -2.292969 1.769531 -2.207031 1.699219 -2.09375 C 1.65625 -2.023438 1.628906 -1.941406 1.609375 -1.84375 C 1.59375 -1.746094 1.585938 -1.597656 1.585938 -1.398438 L 1.585938 0 L 0.789062 0 L 0.789062 -3.039062 L 1.585938 -3.039062 L 1.585938 -2.566406 C 1.664062 -2.738281 1.78125 -2.875 1.941406 -2.96875 C 2.101562 -3.0625 2.292969 -3.113281 2.507812 -3.113281 C 2.617188 -3.113281 2.722656 -3.097656 2.824219 -3.070312 C 2.929688 -3.046875 3.027344 -3.007812 3.121094 -2.957031 Z "/>
</g>
<g id="glyph-0-10">
<path d="M 1.871094 -2.734375 C 1.929688 -2.863281 2.007812 -2.957031 2.101562 -3.019531 C 2.191406 -3.082031 2.304688 -3.113281 2.4375 -3.113281 C 2.699219 -3.113281 2.882812 -3.019531 2.984375 -2.839844 C 3.082031 -2.660156 3.132812 -2.285156 3.132812 -1.710938 L 3.132812 0 L 2.480469 0 L 2.480469 -1.949219 C 2.480469 -2.175781 2.464844 -2.328125 2.429688 -2.402344 C 2.394531 -2.480469 2.332031 -2.515625 2.242188 -2.515625 C 2.152344 -2.515625 2.089844 -2.480469 2.054688 -2.402344 C 2.019531 -2.324219 2 -2.171875 2 -1.949219 L 2 0 L 1.355469 0 L 1.355469 -1.949219 C 1.355469 -2.171875 1.339844 -2.324219 1.300781 -2.402344 C 1.265625 -2.480469 1.203125 -2.515625 1.113281 -2.515625 C 1.023438 -2.515625 0.960938 -2.480469 0.925781 -2.402344 C 0.890625 -2.328125 0.875 -2.175781 0.875 -1.949219 L 0.875 0 L 0.222656 0 L 0.222656 -3.039062 L 0.800781 -3.039062 L 0.800781 -2.722656 C 0.84375 -2.84375 0.917969 -2.9375 1.015625 -3.007812 C 1.117188 -3.078125 1.226562 -3.113281 1.351562 -3.113281 C 1.472656 -3.113281 1.585938 -3.074219 1.6875 -3 C 1.789062 -2.929688 1.851562 -2.839844 1.871094 -2.734375 Z "/>
</g>
<g id="glyph-0-11">
<path d="M 2.878906 -0.15625 C 2.746094 -0.078125 2.601562 -0.0195312 2.445312 0.0195312 C 2.292969 0.0585938 2.128906 0.078125 1.949219 0.078125 C 1.480469 0.078125 1.117188 -0.0625 0.851562 -0.34375 C 0.585938 -0.625 0.457031 -1.015625 0.457031 -1.515625 C 0.457031 -2.015625 0.589844 -2.410156 0.855469 -2.691406 C 1.121094 -2.976562 1.488281 -3.117188 1.957031 -3.117188 C 2.117188 -3.117188 2.277344 -3.097656 2.425781 -3.058594 C 2.578125 -3.023438 2.726562 -2.964844 2.878906 -2.882812 L 2.878906 -2.15625 C 2.761719 -2.257812 2.636719 -2.332031 2.496094 -2.386719 C 2.359375 -2.441406 2.214844 -2.464844 2.066406 -2.464844 C 1.808594 -2.464844 1.609375 -2.382812 1.46875 -2.21875 C 1.332031 -2.054688 1.261719 -1.820312 1.261719 -1.515625 C 1.261719 -1.210938 1.332031 -0.980469 1.46875 -0.816406 C 1.609375 -0.652344 1.808594 -0.574219 2.066406 -0.574219 C 2.21875 -0.574219 2.363281 -0.597656 2.5 -0.648438 C 2.632812 -0.699219 2.757812 -0.78125 2.878906 -0.882812 Z "/>
</g>
<g id="glyph-0-12">
<path d="M 1.671875 -3.40625 C 1.46875 -3.40625 1.316406 -3.296875 1.222656 -3.078125 C 1.128906 -2.859375 1.082031 -2.507812 1.082031 -2.019531 C 1.082031 -1.535156 1.128906 -1.183594 1.222656 -0.96875 C 1.316406 -0.75 1.464844 -0.640625 1.671875 -0.640625 C 1.878906 -0.640625 2.027344 -0.75 2.121094 -0.96875 C 2.214844 -1.1875 2.261719 -1.535156 2.261719 -2.019531 C 2.261719 -2.507812 2.214844 -2.859375 2.121094 -3.078125 C 2.027344 -3.296875 1.878906 -3.40625 1.671875 -3.40625 Z M 0.25 -2.019531 C 0.25 -2.714844 0.371094 -3.238281 0.609375 -3.589844 C 0.847656 -3.945312 1.203125 -4.125 1.671875 -4.125 C 2.140625 -4.125 2.496094 -3.945312 2.734375 -3.589844 C 2.976562 -3.238281 3.09375 -2.714844 3.09375 -2.019531 C 3.09375 -1.328125 2.976562 -0.808594 2.734375 -0.453125 C 2.496094 -0.0976562 2.140625 0.078125 1.671875 0.078125 C 1.203125 0.078125 0.847656 -0.0976562 0.609375 -0.453125 C 0.371094 -0.808594 0.25 -1.332031 0.25 -2.019531 Z "/>
</g>
<g id="glyph-0-13">
<path d="M 1.382812 -1.777344 C 0.980469 -1.929688 0.707031 -2.09375 0.5625 -2.261719 C 0.421875 -2.429688 0.351562 -2.65625 0.351562 -2.941406 C 0.351562 -3.308594 0.46875 -3.597656 0.703125 -3.808594 C 0.9375 -4.019531 1.261719 -4.125 1.671875 -4.125 C 1.859375 -4.125 2.042969 -4.101562 2.230469 -4.058594 C 2.417969 -4.015625 2.601562 -3.953125 2.785156 -3.871094 L 2.785156 -3.089844 C 2.613281 -3.210938 2.4375 -3.304688 2.257812 -3.367188 C 2.082031 -3.429688 1.90625 -3.460938 1.734375 -3.460938 C 1.539062 -3.460938 1.390625 -3.421875 1.289062 -3.34375 C 1.1875 -3.265625 1.132812 -3.15625 1.132812 -3.011719 C 1.132812 -2.898438 1.171875 -2.804688 1.246094 -2.734375 C 1.320312 -2.660156 1.476562 -2.578125 1.71875 -2.492188 L 2.0625 -2.359375 C 2.386719 -2.242188 2.625 -2.082031 2.78125 -1.886719 C 2.933594 -1.6875 3.011719 -1.441406 3.011719 -1.140625 C 3.011719 -0.730469 2.890625 -0.425781 2.648438 -0.222656 C 2.40625 -0.0234375 2.042969 0.078125 1.554688 0.078125 C 1.355469 0.078125 1.152344 0.0546875 0.949219 0.0078125 C 0.75 -0.0390625 0.554688 -0.113281 0.367188 -0.207031 L 0.367188 -1.035156 C 0.578125 -0.882812 0.785156 -0.769531 0.984375 -0.695312 C 1.183594 -0.621094 1.382812 -0.582031 1.578125 -0.582031 C 1.777344 -0.582031 1.929688 -0.628906 2.039062 -0.71875 C 2.144531 -0.808594 2.199219 -0.933594 2.199219 -1.09375 C 2.199219 -1.214844 2.164062 -1.320312 2.089844 -1.410156 C 2.019531 -1.503906 1.914062 -1.574219 1.777344 -1.628906 Z "/>
</g>
</g>
<image id="source-42" x="0" y="0" width="0" height="0"/>
<mask id="mask-0">
<use xlink:href="#source-42"/>
</mask>
</defs>
<g fill="rgb(100%, 100%, 100%)" fill-opacity="1">
<use xlink:href="#glyph-0-0" x="30" y="25.157227"/>
<use xlink:href="#glyph-0-1" x="33" y="25.157227"/>
<use xlink:href="#glyph-0-2" x="36" y="25.157227"/>
<use xlink:href="#glyph-0-3" x="39" y="25.157227"/>
<use xlink:href="#glyph-0-4" x="42" y="25.157227"/>
<use xlink:href="#glyph-0-1" x="45" y="25.157227"/>
<use xlink:href="#glyph-0-5" x="48" y="25.157227"/>
<use xlink:href="#glyph-0-6" x="51" y="25.157227"/>
<use xlink:href="#glyph-0-7" x="54" y="25.157227"/>
<use xlink:href="#glyph-0-8" x="57" y="25.157227"/>
<use xlink:href="#glyph-0-1" x="60" y="25.157227"/>
<use xlink:href="#glyph-0-9" x="63" y="25.157227"/>
<use xlink:href="#glyph-0-7" x="66" y="25.157227"/>
<use xlink:href="#glyph-0-10" x="69" y="25.157227"/>
<use xlink:href="#glyph-0-5" x="72" y="25.157227"/>
<use xlink:href="#glyph-0-11" x="75" y="25.157227"/>
<use xlink:href="#glyph-0-12" x="78" y="25.157227"/>
<use xlink:href="#glyph-0-13" x="81" y="25.157227"/>
</g>
</svg>
