<?xml version="1.0" encoding="UTF-8"?>
<svg xmlns="http://www.w3.org/2000/svg" xmlns:xlink="http://www.w3.org/1999/xlink" width="854" height="480" viewBox="0 0 854 480">
<defs>
<g>
<g id="glyph-0-0">
<path d="M 0.867188 -2.363281 L 0.867188 -1.53125 L 1.097656 -1.53125 C 1.28125 -1.53125 1.410156 -1.5625 1.484375 -1.625 C 1.558594 -1.6875 1.59375 -1.796875 1.59375 -1.949219 C 1.59375 -2.101562 1.558594 -2.210938 1.484375 -2.273438 C 1.410156 -2.335938 1.28125 -2.363281 1.097656 -2.363281 Z M 0.308594 -2.835938 L 1.078125 -2.835938 C 1.46875 -2.835938 1.75 -2.765625 1.921875 -2.625 C 2.09375 -2.488281 2.179688 -2.261719 2.179688 -1.949219 C 2.179688 -1.636719 2.09375 -1.410156 1.921875 -1.269531 C 1.75 -1.132812 1.46875 -1.0625 1.078125 -1.0625 L 0.867188 -1.0625 L 0.867188 0 L 0.308594 0 Z "/>
</g>
<g id="glyph-0-1">
<path d="M 1.53125 -1.339844 C 1.589844 -1.328125 1.636719 -1.300781 1.679688 -1.261719 C 1.71875 -1.21875 1.769531 -1.140625 1.828125 -1.019531 L 2.339844 0 L 1.726562 0 L 1.382812 -0.714844 C 1.375 -0.734375 1.359375 -0.765625 1.34375 -0.800781 C 1.246094 -1.015625 1.125 -1.121094 0.992188 -1.121094 L 0.8125 -1.121094 L 0.8125 0 L 0.253906 0 L 0.253906 -2.835938 L 1.0625 -2.835938 C 1.425781 -2.835938 1.6875 -2.769531 1.847656 -2.640625 C 2.007812 -2.511719 2.085938 -2.300781 2.085938 -2.011719 C 2.085938 -1.816406 2.039062 -1.660156 1.941406 -1.546875 C 1.847656 -1.429688 1.710938 -1.363281 1.53125 -1.339844 Z M 0.8125 -2.363281 L 0.8125 -1.589844 L 1.078125 -1.589844 C 1.230469 -1.589844 1.339844 -1.621094 1.40625 -1.683594 C 1.472656 -1.742188 1.507812 -1.839844 1.507812 -1.980469 C 1.507812 -2.117188 1.472656 -2.214844 1.40625 -2.273438 C 1.339844 -2.335938 1.230469 -2.363281 1.078125 -2.363281 Z "/>
</g>
<g id="glyph-0-2">
<rect x="0" y="0" width="0" height="0" mask="url(#mask-0)"/>
</g>
<g id="glyph-0-3">
<path d="M 1.34375 -2.792969 L 1.164062 -2.082031 L 1.546875 -2.082031 L 1.726562 -2.792969 L 2.152344 -2.792969 L 1.96875 -2.082031 L 2.335938 -2.082031 L 2.335938 -1.671875 L 1.867188 -1.671875 L 1.726562 -1.117188 L 2.117188 -1.117188 L 2.117188 -0.707031 L 1.625 -0.707031 L 1.445312 0 L 1.027344 0 L 1.207031 -0.707031 L 0.816406 -0.707031 L 0.636719 0 L 0.21875 0 L 0.398438 -0.707031 L 0.00390625 -0.707031 L 0.00390625 -1.117188 L 0.496094 -1.117188 L 0.636719 -1.671875 L 0.222656 -1.671875 L 0.222656 -2.082031 L 0.742188 -2.082031 L 0.921875 -2.792969 Z M 1.445312 -1.671875 L 1.058594 -1.671875 L 0.917969 -1.117188 L 1.308594 -1.117188 Z "/>
</g>
<g id="glyph-0-4">
<path d="M 0.355469 -0.492188 L 0.984375 -0.492188 L 0.984375 -2.335938 L 0.402344 -2.191406 L 0.402344 -2.695312 L 0.988281 -2.835938 L 1.527344 -2.835938 L 1.527344 -0.492188 L 2.15625 -0.492188 L 2.15625 0 L 0.355469 0 Z "/>
</g>
<g id="glyph-0-5">
<path d="M 1.316406 -2.210938 L 0.601562 -1.09375 L 1.316406 -1.09375 Z M 1.269531 -2.835938 L 1.855469 -2.835938 L 1.855469 -1.09375 L 2.167969 -1.09375 L 2.167969 -0.613281 L 1.855469 -0.613281 L 1.855469 0 L 1.316406 0 L 1.316406 -0.613281 L 0.195312 -0.613281 L 0.195312 -1.15625 Z "/>
</g>
</g>
<image id="source-79" x="0" y="0" width="0" height="0"/>
<mask id="mask-0">
<use xlink:href="#source-79"/>
</mask>
</defs>
<g fill="rgb(99.215686%, 69.019608%, 13.333333%)" fill-opacity="1">
<use xlink:href="#glyph-0-0" x="30" y="23.610352"/>
<use xlink:href="#glyph-0-1" x="32" y="23.610352"/>
<use xlink:href="#glyph-0-2" x="34" y="23.610352"/>
<use xlink:href="#glyph-0-3" x="36" y="23.610352"/>
<use xlink:href="#glyph-0-4" x="38" y="23.610352"/>
<use xlink:href="#glyph-0-5" x="40" y="23.610352"/>
</g>
</svg>
