<svg xmlns="http://www.w3.org/2000/svg" width="32" height="32" viewBox="0 0 256 256" fill="none">
  <rect width="256" height="256" rx="56" fill="#151722"/>
  <g transform="translate(78,18) scale(0.0435,-0.0435) translate(0,-5060)" fill="#6E57FF">
    <path d="M354 5050 c-11 -4 -33 -22 -47 -40 l-27 -32 0 -1336 c0 -1305 1 -1338 19 -1366 35 -53 46 -55 309 -56 272 0 292 4 318 65 12 29 14 236 14 1350 0 1448 4 1365 -62 1405 -31 19 -49 20 -268 19 -129 0 -244 -4 -256 -9z"/>
    <path d="M1080 2805 l0 -875 155 0 c105 0 155 -3 155 -11 0 -24 -61 -250 -90 -334 -82 -238 -271 -560 -452 -770 -200 -232 -503 -500 -775 -683 -66 -44 -81 -69 -63 -102 52 -97 539 56 932 293 315 190 642 468 838 711 272 337 464 771 521 1176 19 135 16 401 -6 525 -69 399 -276 689 -596 839 -155 72 -321 106 -526 106 l-93 0 0 -875z"/>
  </g>
</svg>
